<?xml version="1.0" encoding="UTF-8"?>
<svg id="Layer_1" data-name="Layer 1" xmlns="http://www.w3.org/2000/svg" viewBox="0 0 1060.474 236.701">
  <defs>
    <style>
      .cls-1 {
        fill: none;
      }

      .cls-1, .cls-2, .cls-3, .cls-4, .cls-5 {
        stroke-width: 0px;
      }

      .cls-2 {
        fill: #0762ab;
      }

      .cls-3 {
        fill: #14b1e7;
      }

      .cls-4 {
        fill: #91ccf0;
      }

      .cls-5 {
        fill: #00aeef;
      }
    </style>
  </defs>
  <g>
    <g>
      <path class="cls-1" d="M141.409,95.708c27.938,0,53.904,1.894,75.533,5.141-8.328-17.05-20.977-34.262-33.594-48.662-12.819-3.095-26.635-4.786-41.041-4.786-13.858,0-27.171,1.565-39.574,4.439-12.818,14.377-25.891,31.597-34.56,48.675,21.159-3.041,46.276-4.807,73.236-4.807Z"/>
      <path class="cls-1" d="M225.353,150.719c-23.15,4.079-52.28,6.512-83.945,6.512-30.828,0-59.249-2.307-82.092-6.193,3.195,19.591,12.405,36.939,25.877,49.714,17.021,6.113,36.463,9.583,57.114,9.583s40.093-3.47,57.114-9.583c13.546-12.845,22.787-30.311,25.933-50.033Z"/>
      <g>
        <path class="cls-3" d="M191.361,165.043c-7.417,13.411-17.981,28.168-48.527,28.168-28.358,0-41.497-14.673-49.418-28.062-7.156-.831-14.197-1.844-20.921-3.062,10.411,20.884,28.665,46.102,70.69,46.102,45.196,0,58.588-25.281,69-46.166-6.904,1.154-13.856,2.167-20.823,3.02Z"/>
        <path class="cls-4" d="M141.957,193.212c30.547,0,40.789-12.684,49.404-28.168-15.856,1.94-32.67,3.043-48.325,3.043-15.957,0-33.135-.92-50.497-2.936,7.921,13.389,21.06,28.062,49.418,28.062Z"/>
        <path class="cls-3" d="M143.426,50.882c2.919,0,18.591,11.607,36.734,35.57,8.184,1.071,14.631,2.453,20.378,3.881-28.053-38.576-53.002-57.214-57.458-57.214-3.165,0-34.574,28.346-55.233,56.515,5.448-1.299,12.149-2.497,20.244-3.421,14.125-18.152,33.288-35.331,35.334-35.331Z"/>
        <path class="cls-4" d="M143.426,50.882c-3.497,0-22.086,17.179-36.211,35.331,9.673-1.103,21.343-1.813,35.342-1.813,15.601,0,28.189.819,37.602,2.051-18.143-23.963-33.815-35.57-36.734-35.57Z"/>
      </g>
    </g>
    <path class="cls-2" d="M276.396,118.088c-8.125-30.43-48.965-58.955-94.624-66.273,12.445,12.25,26.842,31.984,35.17,49.034-21.629-3.247-47.595-5.141-75.533-5.141-26.96,0-52.077,1.766-73.236,4.807,8.669-17.078,22.225-33.964,38.978-49.633C56.639,58.364,16.267,87.15,8.217,117.858c-.963,3.673-1.467,7.373-1.467,11.068,0,30.164,29.433,60.444,81.808,72.988-13.354-12.663-25.819-30.963-29.149-50.362,4.907.64,10.012,1.224,15.296,1.748,19.723,2.499,42.463,3.931,66.705,3.931,24.472,0,47.415-1.458,67.269-4.001,5.75-.578,11.281-1.229,16.577-1.945-3.294,19.512-15.781,37.907-29.197,50.63,44.163-8.108,81.807-42.824,81.807-72.988,0-3.618-.509-7.242-1.469-10.839Z"/>
  </g>
  <g>
    <path class="cls-2" d="M350.922,187.436V60.67h30.118v49.6h50.11v-49.6h30.117v126.766h-30.117v-52.323h-50.11v52.323h-30.118Z"/>
    <path class="cls-2" d="M501.411,189.137c-6.069,0-11.458-1.035-16.165-3.104-4.708-2.07-8.395-5.147-11.06-9.231-2.667-4.084-3.999-9.244-3.999-15.484,0-5.218.921-9.614,2.765-13.187,1.843-3.574,4.396-6.479,7.657-8.721,3.261-2.24,7.02-3.956,11.273-5.147,4.254-1.191,8.79-1.985,13.612-2.382,5.388-.454,9.727-.949,13.017-1.489,3.289-.539,5.671-1.332,7.146-2.382,1.475-1.049,2.212-2.51,2.212-4.381v-.426c0-2.098-.511-3.899-1.531-5.402-1.021-1.502-2.481-2.65-4.382-3.445-1.9-.794-4.211-1.191-6.934-1.191s-5.119.412-7.189,1.234c-2.07.823-3.772,1.971-5.104,3.445-1.333,1.476-2.227,3.205-2.68,5.19l-26.97-2.723c1.077-5.671,3.417-10.62,7.019-14.846,3.602-4.225,8.381-7.5,14.336-9.827,5.956-2.325,12.987-3.488,21.1-3.488,6.011,0,11.57.695,16.675,2.084,5.104,1.391,9.542,3.432,13.314,6.125,3.771,2.695,6.692,5.998,8.764,9.912,2.069,3.914,3.105,8.423,3.105,13.527v63.638h-28.076v-13.188h-.681c-1.701,3.233-3.843,5.956-6.423,8.168-2.582,2.212-5.603,3.886-9.062,5.02-3.46,1.134-7.373,1.701-11.74,1.701ZM510.429,169.57c3.288,0,6.28-.666,8.976-2,2.693-1.332,4.82-3.176,6.381-5.53,1.559-2.353,2.339-5.062,2.339-8.125v-8.933c-.795.455-1.815.865-3.062,1.233-1.248.37-2.609.723-4.084,1.063-1.476.34-2.992.638-4.551.894-1.562.255-3.078.497-4.552.723-2.837.397-5.275,1.078-7.317,2.042-2.042.965-3.603,2.184-4.679,3.659-1.078,1.476-1.616,3.262-1.616,5.36,0,2.042.523,3.786,1.573,5.232,1.049,1.447,2.48,2.539,4.297,3.276,1.814.738,3.913,1.106,6.296,1.106Z"/>
    <path class="cls-2" d="M598.795,188.797c-6.58,0-12.309-1.46-17.186-4.382-4.879-2.92-8.65-7.062-11.315-12.421-2.667-5.36-3.999-11.641-3.999-18.845v-59.64h29.607v53.769c0,5.332,1.347,9.501,4.041,12.506,2.693,3.007,6.451,4.509,11.272,4.509,3.176,0,5.969-.694,8.381-2.084,2.41-1.389,4.281-3.403,5.615-6.041,1.332-2.637,1.999-5.828,1.999-9.571v-53.088h29.606v93.926h-28.16l-.426-23.992h1.957c-2.439,7.657-6.183,13.797-11.23,18.419-5.049,4.623-11.77,6.934-20.163,6.934Z"/>
    <path class="cls-2" d="M696.895,60.67v126.766h-29.607V60.67h29.607Z"/>
    <path class="cls-5" d="M738.89,189.393c-5.729,0-10.962-1.078-15.697-3.233-4.736-2.154-8.508-5.345-11.315-9.571-2.808-4.225-4.211-9.372-4.211-15.441,0-4.707.894-8.648,2.68-11.826,1.787-3.176,4.31-5.771,7.572-7.785,3.261-2.013,7.117-3.616,11.57-4.807,4.452-1.191,9.372-2.126,14.761-2.807,5.331-.681,9.812-1.262,13.442-1.744,3.63-.481,6.395-1.276,8.295-2.382s2.851-2.821,2.851-5.147v-2.042c0-4.197-.88-7.798-2.638-10.805-1.759-3.005-4.296-5.331-7.614-6.976-3.318-1.645-7.359-2.467-12.123-2.467-4.539,0-8.522.723-11.954,2.169-3.433,1.446-6.253,3.347-8.465,5.7-2.212,2.354-3.772,4.977-4.68,7.87l-11.145-2.893c1.701-5.275,4.366-9.599,7.997-12.974,3.629-3.374,7.883-5.898,12.762-7.572,4.877-1.672,9.981-2.51,15.313-2.51,3.97,0,7.969.54,11.996,1.617,4.026,1.078,7.685,2.822,10.976,5.232,3.288,2.412,5.94,5.615,7.954,9.614,2.013,3.999,3.021,8.92,3.021,14.761v64.063h-11.23v-14.974h-.766c-1.306,2.893-3.262,5.63-5.87,8.21-2.609,2.582-5.857,4.68-9.741,6.296-3.886,1.616-8.466,2.425-13.74,2.425ZM740.592,179.183c5.842,0,10.876-1.246,15.102-3.743,4.225-2.495,7.473-5.87,9.741-10.124,2.268-4.254,3.403-8.933,3.403-14.038v-13.357c-.795.738-2.113,1.418-3.956,2.042-1.844.625-3.971,1.178-6.381,1.659-2.411.482-4.864.894-7.359,1.234-2.496.34-4.821.652-6.977.936-5.219.625-9.698,1.631-13.442,3.021-3.743,1.391-6.607,3.275-8.593,5.658-1.985,2.382-2.978,5.445-2.978,9.188,0,3.688.936,6.835,2.808,9.443,1.872,2.609,4.424,4.608,7.657,5.998,3.232,1.391,6.892,2.084,10.975,2.084Z"/>
    <path class="cls-5" d="M831.535,219.785c-6.523,0-12.294-.88-17.313-2.637-5.02-1.759-9.188-4.212-12.507-7.359s-5.8-6.821-7.444-11.018l9.954-4.509c1.247,2.722,3.021,5.26,5.317,7.614,2.297,2.353,5.246,4.239,8.849,5.657,3.601,1.417,7.982,2.127,13.145,2.127,8.507,0,15.299-2.142,20.376-6.423,5.075-4.283,7.614-10.763,7.614-19.44v-15.333h-.936c-1.419,3.177-3.391,6.168-5.913,8.975-2.524,2.808-5.715,5.105-9.571,6.892-3.858,1.787-8.508,2.68-13.953,2.68-7.544,0-14.265-1.885-20.163-5.657-5.899-3.771-10.521-9.146-13.868-16.122s-5.02-15.285-5.02-24.928c0-9.585,1.659-17.994,4.978-25.226,3.317-7.232,7.926-12.86,13.825-16.888,5.898-4.026,12.704-6.041,20.418-6.041,5.501,0,10.195.965,14.081,2.893,3.884,1.929,7.089,4.382,9.613,7.359,2.523,2.978,4.467,6.027,5.828,9.146h.936v-18.037h11.061v90.713c0,8.109-1.702,14.803-5.104,20.078-3.403,5.274-8.069,9.174-13.996,11.698-5.927,2.522-12.663,3.785-20.205,3.785ZM830.854,176.716c6.011,0,11.173-1.475,15.483-4.424,4.31-2.949,7.628-7.16,9.954-12.634,2.325-5.473,3.488-11.981,3.488-19.525,0-7.373-1.135-13.881-3.403-19.525-2.269-5.643-5.572-10.067-9.911-13.272-4.339-3.204-9.543-4.807-15.611-4.807-6.126,0-11.373,1.631-15.74,4.892-4.368,3.262-7.699,7.714-9.996,13.357-2.297,5.644-3.445,12.096-3.445,19.355,0,7.317,1.161,13.727,3.487,19.228,2.325,5.502,5.658,9.771,9.997,12.804,4.339,3.035,9.571,4.552,15.697,4.552Z"/>
    <path class="cls-5" d="M914.735,188.797c-6.353,0-11.996-1.348-16.931-4.041-4.934-2.693-8.792-6.637-11.57-11.826-2.779-5.189-4.169-11.499-4.169-18.93v-60.49h11.4v59.64c0,7.827,2.184,13.982,6.552,18.462,4.366,4.481,10.209,6.721,17.525,6.721,4.935,0,9.387-1.049,13.357-3.147,3.97-2.098,7.104-5.147,9.401-9.146,2.297-3.999,3.445-8.776,3.445-14.335v-58.193h11.4v93.926h-11.06v-21.95h2.041c-2.666,8.225-6.793,14.166-12.378,17.824-5.588,3.658-11.926,5.487-19.016,5.487Z"/>
    <path class="cls-5" d="M995.996,189.393c-5.729,0-10.962-1.078-15.697-3.233-4.736-2.154-8.508-5.345-11.315-9.571-2.808-4.225-4.211-9.372-4.211-15.441,0-4.707.894-8.648,2.68-11.826,1.787-3.176,4.31-5.771,7.572-7.785,3.261-2.013,7.117-3.616,11.57-4.807,4.452-1.191,9.372-2.126,14.761-2.807,5.331-.681,9.812-1.262,13.442-1.744,3.63-.481,6.395-1.276,8.295-2.382s2.851-2.821,2.851-5.147v-2.042c0-4.197-.88-7.798-2.638-10.805-1.759-3.005-4.296-5.331-7.614-6.976-3.318-1.645-7.359-2.467-12.123-2.467-4.539,0-8.522.723-11.954,2.169-3.433,1.446-6.253,3.347-8.465,5.7-2.212,2.354-3.772,4.977-4.68,7.87l-11.145-2.893c1.701-5.275,4.366-9.599,7.997-12.974,3.629-3.374,7.883-5.898,12.762-7.572,4.877-1.672,9.981-2.51,15.313-2.51,3.97,0,7.969.54,11.996,1.617,4.026,1.078,7.685,2.822,10.976,5.232,3.288,2.412,5.94,5.615,7.954,9.614,2.013,3.999,3.021,8.92,3.021,14.761v64.063h-11.23v-14.974h-.766c-1.306,2.893-3.262,5.63-5.87,8.21-2.609,2.582-5.857,4.68-9.741,6.296-3.886,1.616-8.466,2.425-13.74,2.425ZM997.697,179.183c5.842,0,10.876-1.246,15.102-3.743,4.225-2.495,7.473-5.87,9.741-10.124,2.268-4.254,3.403-8.933,3.403-14.038v-13.357c-.795.738-2.113,1.418-3.956,2.042-1.844.625-3.971,1.178-6.381,1.659-2.411.482-4.864.894-7.359,1.234-2.496.34-4.821.652-6.977.936-5.219.625-9.698,1.631-13.442,3.021-3.743,1.391-6.607,3.275-8.593,5.658-1.985,2.382-2.978,5.445-2.978,9.188,0,3.688.936,6.835,2.808,9.443,1.872,2.609,4.424,4.608,7.657,5.998,3.232,1.391,6.892,2.084,10.975,2.084Z"/>
  </g>
</svg>