<svg xmlns="http://www.w3.org/2000/svg" width="800" height="600" viewBox="0 0 800 600">
  <rect width="800" height="600" fill="#005A9C"/>
  <rect width="800" height="600" fill="url(#grid)" opacity="0.05"/>
  <defs>
    <pattern id="grid" width="40" height="40" patternUnits="userSpaceOnUse">
      <path d="M 40 0 L 0 0 0 40" fill="none" stroke="white" stroke-width="1"/>
    </pattern>
  </defs>
  <!-- Water drop icon -->
  <path d="M400 180 C400 180 320 280 320 350 C320 393 356 428 400 428 C444 428 480 393 480 350 C480 280 400 180 400 180Z" fill="white" opacity="0.2"/>
  <!-- Truck icon -->
  <rect x="260" y="340" width="180" height="100" rx="8" fill="white" opacity="0.15"/>
  <rect x="440" y="360" width="100" height="80" rx="8" fill="white" opacity="0.15"/>
  <circle cx="300" cy="445" r="20" fill="white" opacity="0.25"/>
  <circle cx="480" cy="445" r="20" fill="white" opacity="0.25"/>
  <!-- Text -->
  <text x="400" y="500" font-family="sans-serif" font-size="24" fill="white" opacity="0.6" text-anchor="middle">Bulk Water Hauling</text>
  <text x="400" y="530" font-family="sans-serif" font-size="18" fill="white" opacity="0.4" text-anchor="middle">haulagua.com</text>
</svg>